<svg xmlns="http://www.w3.org/2000/svg" width="19" height="19" viewBox="0 0 19 19">
  <g id="Group_1" data-name="Group 1" transform="translate(-313.5 -576)">
    <rect id="Rectangle_Copy_3" data-name="Rectangle Copy 3" width="18" height="18" rx="4" transform="translate(314 576.5)" fill="#f2f1f1" stroke="#e7e7e7" stroke-miterlimit="10" stroke-width="1"/>
    <path id="check" d="M4.371,9.1a.583.583,0,0,1-.824,0L.256,5.808a.874.874,0,0,1,0-1.236l.412-.412a.874.874,0,0,1,1.236,0L3.959,6.214,9.511.662a.874.874,0,0,1,1.236,0l.412.412a.874.874,0,0,1,0,1.236Zm0,0" transform="translate(317.5 580.594)" fill="#989898"/>
  </g>
</svg>
