<svg xmlns="http://www.w3.org/2000/svg" xmlns:xlink="http://www.w3.org/1999/xlink" width="46.765" height="51.525" viewBox="0 0 46.765 51.525">
  <defs>
    <linearGradient id="linear-gradient" x2="1.02" y2="1.01" gradientUnits="objectBoundingBox">
      <stop offset="0" stop-color="#fd8041"/>
      <stop offset="1" stop-color="#ff4ca1"/>
    </linearGradient>
  </defs>
  <g id="Group_2" data-name="Group 2" transform="translate(-293.617 -1.238)">
    <g id="Polygon">
      <path id="Polygon-2" data-name="Polygon" d="M23,2.309a8,8,0,0,1,8,0l15.383,8.881a8,8,0,0,1,4,6.928V35.881a8,8,0,0,1-4,6.928L31,51.691a8,8,0,0,1-8,0L7.617,42.809a8,8,0,0,1-4-6.928V18.119a8,8,0,0,1,4-6.928Z" transform="translate(290)" fill="none"/>
      <path id="Polygon-3" data-name="Polygon" d="M23,2.309a8,8,0,0,1,8,0l15.383,8.881a8,8,0,0,1,4,6.928V35.881a8,8,0,0,1-4,6.928L31,51.691a8,8,0,0,1-8,0L7.617,42.809a8,8,0,0,1-4-6.928V18.119a8,8,0,0,1,4-6.928Z" transform="translate(290)" fill="url(#linear-gradient)"/>
    </g>
    <path id="Icon" d="M7.5,16.5v-6h-6a1.5,1.5,0,0,1,0-3h6v-6a1.5,1.5,0,0,1,3,0v6h6a1.5,1.5,0,0,1,0,3h-6v6a1.5,1.5,0,0,1-3,0Z" transform="translate(308 18)" fill="#fff"/>
  </g>
</svg>
