<svg id="_001-attach" data-name="001-attach" xmlns="http://www.w3.org/2000/svg" width="20" height="19" viewBox="0 0 20 19">
  <path id="Path" d="M18.127,1.877a6.384,6.384,0,0,0-9.042,0L1.335,9.656a4.6,4.6,0,0,0,0,6.483,4.56,4.56,0,0,0,6.458,0l7.1-7.131a2.745,2.745,0,1,0-3.875-3.889L6.377,9.781a.915.915,0,1,0,1.292,1.3l4.646-4.663a.915.915,0,0,1,1.292,1.3L6.5,14.842a2.745,2.745,0,0,1-3.875-3.89l7.75-7.779a4.575,4.575,0,0,1,6.458,6.483l-7.75,7.779a.919.919,0,0,0,0,1.3.911.911,0,0,0,1.292,0l7.75-7.779a6.434,6.434,0,0,0,0-9.076Z" transform="translate(0 0)" fill="#b3b3b3"/>
</svg>
