<svg xmlns="http://www.w3.org/2000/svg" width="9" height="8" viewBox="0 0 9 8">
  <g id="_001-photo-camera" data-name="001-photo-camera" transform="translate(0 -0.738)">
    <path id="Shape" d="M1.076,8A1.138,1.138,0,0,1,0,6.8V2.587a1.138,1.138,0,0,1,1.076-1.2h.939L2.533.522A1.051,1.051,0,0,1,3.424,0H5.576a1.051,1.051,0,0,1,.89.522l.518.869h.939A1.138,1.138,0,0,1,9,2.587V6.8A1.138,1.138,0,0,1,7.924,8Z" transform="translate(0 0.738)" fill="#fff"/>
    <path id="Path" d="M1.5,0A1.5,1.5,0,1,0,3,1.495,1.506,1.506,0,0,0,1.5,0Z" transform="translate(3 3.738)" fill="#fff"/>
  </g>
</svg>
