<svg xmlns="http://www.w3.org/2000/svg" width="12.331" height="13.788" viewBox="0 0 12.331 13.788">
  <path id="Fill_23" data-name="Fill 23" d="M11.937,6.17h-.394a5.241,5.241,0,0,1-.622,2.5l-.048.187v4.538h.394l.259-.3s-1.435-1.246-2.444-2.113a.4.4,0,0,0-.44-.05,5.375,5.375,0,0,1-6.279-8.57,5.378,5.378,0,0,1,9.18,3.806h.788a6.175,6.175,0,1,0-3.323,5.462l-.183-.349-.257.3c1.007.865,2.439,2.108,2.441,2.11a.394.394,0,0,0,.652-.3V8.856h-.394l.347.187a6.034,6.034,0,0,0,.717-2.873h-.394" fill="#0a0b09"/>
</svg>
