<svg id="_002-home" data-name="002-home" xmlns="http://www.w3.org/2000/svg" xmlns:xlink="http://www.w3.org/1999/xlink" width="21" height="21" viewBox="0 0 21 21">
  <defs>
    <linearGradient id="linear-gradient" x2="1.02" y2="1.01" gradientUnits="objectBoundingBox">
      <stop offset="0" stop-color="#fd8041"/>
      <stop offset="1" stop-color="#ff4ca1"/>
    </linearGradient>
  </defs>
  <g id="Path">
    <path id="Path-2" data-name="Path" d="M20.436,9.134h0L11.867.567a1.933,1.933,0,0,0-2.734,0L.57,9.128l-.009.009a1.932,1.932,0,0,0,1.287,3.294l.06,0h.341v6.3A2.265,2.265,0,0,0,4.512,21H7.864a.615.615,0,0,0,.615-.615V15.442A1.033,1.033,0,0,1,9.512,14.41h1.977a1.033,1.033,0,0,1,1.032,1.032v4.942a.615.615,0,0,0,.615.615h3.352a2.265,2.265,0,0,0,2.263-2.262v-6.3h.317a1.933,1.933,0,0,0,1.368-3.3Z" fill="none"/>
    <path id="Path-3" data-name="Path" d="M20.436,9.134h0L11.867.567a1.933,1.933,0,0,0-2.734,0L.57,9.128l-.009.009a1.932,1.932,0,0,0,1.287,3.294l.06,0h.341v6.3A2.265,2.265,0,0,0,4.512,21H7.864a.615.615,0,0,0,.615-.615V15.442A1.033,1.033,0,0,1,9.512,14.41h1.977a1.033,1.033,0,0,1,1.032,1.032v4.942a.615.615,0,0,0,.615.615h3.352a2.265,2.265,0,0,0,2.263-2.262v-6.3h.317a1.933,1.933,0,0,0,1.368-3.3Z" fill="url(#linear-gradient)"/>
  </g>
</svg>
