<svg id="_001-sections" data-name="001-sections" xmlns="http://www.w3.org/2000/svg" width="21" height="21" viewBox="0 0 21 21">
  <path id="Path" d="M8.409,0H1.591A1.531,1.531,0,0,0,0,1.458V3.542A1.531,1.531,0,0,0,1.591,5H8.409A1.531,1.531,0,0,0,10,3.542V1.458A1.531,1.531,0,0,0,8.409,0Z" transform="translate(11)" fill="#e2e2e2"/>
  <path id="Path-2" data-name="Path" d="M8.409,0H1.591A1.531,1.531,0,0,0,0,1.458V3.542A1.531,1.531,0,0,0,1.591,5H8.409A1.531,1.531,0,0,0,10,3.542V1.458A1.531,1.531,0,0,0,8.409,0Z" transform="translate(11 8)" fill="#e2e2e2"/>
  <path id="Path-3" data-name="Path" d="M8.409,0H1.591A1.531,1.531,0,0,0,0,1.458V3.542A1.531,1.531,0,0,0,1.591,5H8.409A1.531,1.531,0,0,0,10,3.542V1.458A1.531,1.531,0,0,0,8.409,0Z" transform="translate(11 16)" fill="#e2e2e2"/>
  <path id="Path-4" data-name="Path" d="M1.591,21H8.409A1.564,1.564,0,0,0,10,19.469V1.531A1.564,1.564,0,0,0,8.409,0H1.591A1.564,1.564,0,0,0,0,1.531V19.469A1.564,1.564,0,0,0,1.591,21Z" fill="#e2e2e2"/>
</svg>
