<svg id="_001-sections" data-name="001-sections" xmlns="http://www.w3.org/2000/svg" xmlns:xlink="http://www.w3.org/1999/xlink" width="21" height="21" viewBox="0 0 21 21">
  <defs>
    <linearGradient id="linear-gradient" x2="1.02" y2="1.01" gradientUnits="objectBoundingBox">
      <stop offset="0" stop-color="#fd8041"/>
      <stop offset="1" stop-color="#ff4ca1"/>
    </linearGradient>
  </defs>
  <g id="Path">
    <path id="Path-2" data-name="Path" d="M8.409,0H1.591A1.531,1.531,0,0,0,0,1.458V3.542A1.531,1.531,0,0,0,1.591,5H8.409A1.531,1.531,0,0,0,10,3.542V1.458A1.531,1.531,0,0,0,8.409,0Z" transform="translate(11)" fill="#e2e2e2"/>
    <path id="Path-3" data-name="Path" d="M8.409,0H1.591A1.531,1.531,0,0,0,0,1.458V3.542A1.531,1.531,0,0,0,1.591,5H8.409A1.531,1.531,0,0,0,10,3.542V1.458A1.531,1.531,0,0,0,8.409,0Z" transform="translate(11)" fill="url(#linear-gradient)"/>
  </g>
  <g id="Path-4" data-name="Path">
    <path id="Path-5" data-name="Path" d="M8.409,0H1.591A1.531,1.531,0,0,0,0,1.458V3.542A1.531,1.531,0,0,0,1.591,5H8.409A1.531,1.531,0,0,0,10,3.542V1.458A1.531,1.531,0,0,0,8.409,0Z" transform="translate(11 8)" fill="#e2e2e2"/>
    <path id="Path-6" data-name="Path" d="M8.409,0H1.591A1.531,1.531,0,0,0,0,1.458V3.542A1.531,1.531,0,0,0,1.591,5H8.409A1.531,1.531,0,0,0,10,3.542V1.458A1.531,1.531,0,0,0,8.409,0Z" transform="translate(11 8)" fill="url(#linear-gradient)"/>
  </g>
  <g id="Path-7" data-name="Path">
    <path id="Path-8" data-name="Path" d="M8.409,0H1.591A1.531,1.531,0,0,0,0,1.458V3.542A1.531,1.531,0,0,0,1.591,5H8.409A1.531,1.531,0,0,0,10,3.542V1.458A1.531,1.531,0,0,0,8.409,0Z" transform="translate(11 16)" fill="#e2e2e2"/>
    <path id="Path-9" data-name="Path" d="M8.409,0H1.591A1.531,1.531,0,0,0,0,1.458V3.542A1.531,1.531,0,0,0,1.591,5H8.409A1.531,1.531,0,0,0,10,3.542V1.458A1.531,1.531,0,0,0,8.409,0Z" transform="translate(11 16)" fill="url(#linear-gradient)"/>
  </g>
  <g id="Path-10" data-name="Path">
    <path id="Path-11" data-name="Path" d="M1.591,21H8.409A1.564,1.564,0,0,0,10,19.469V1.531A1.564,1.564,0,0,0,8.409,0H1.591A1.564,1.564,0,0,0,0,1.531V19.469A1.564,1.564,0,0,0,1.591,21Z" fill="#e2e2e2"/>
    <path id="Path-12" data-name="Path" d="M1.591,21H8.409A1.564,1.564,0,0,0,10,19.469V1.531A1.564,1.564,0,0,0,8.409,0H1.591A1.564,1.564,0,0,0,0,1.531V19.469A1.564,1.564,0,0,0,1.591,21Z" fill="url(#linear-gradient)"/>
  </g>
</svg>
