<svg xmlns="http://www.w3.org/2000/svg" width="15" height="15" viewBox="0 0 15 15">
  <g id="Group_5" data-name="Group 5" transform="translate(-211.5 -414)">
    <circle id="Oval" cx="7.5" cy="7.5" r="7.5" transform="translate(211.5 414)" fill="#49c89f"/>
    <path id="Path" d="M5.208.156,2.091,3.716.8,2.237a.426.426,0,0,0-.659,0,.587.587,0,0,0,0,.753L1.761,4.845A.439.439,0,0,0,2.091,5a.445.445,0,0,0,.33-.155L5.863.913a.587.587,0,0,0,0-.753A.419.419,0,0,0,5.208.156Z" transform="translate(216.109 418.653) rotate(7)" fill="#fff"/>
  </g>
</svg>
