<svg xmlns="http://www.w3.org/2000/svg" width="46" height="44" viewBox="0 0 46 44">
  <path id="Path" d="M10.39,0,26.2.059l.4,0a18.78,18.78,0,0,1,8.3,1.882A18.4,18.4,0,0,1,41.08,6.921a21.488,21.488,0,0,1,3.69,7.009A26.683,26.683,0,0,1,46,21.971a26.968,26.968,0,0,1-1.23,8.07,21.436,21.436,0,0,1-3.69,7.039A18.4,18.4,0,0,1,34.9,42.056a18.78,18.78,0,0,1-8.3,1.882l-.4,0H13.883V44H.064A10.3,10.3,0,0,1,9.125,32.605l.151-.015h0l.158-.014q.466-.038.933-.033l3.515.038v.009h7.3v-.017H26.2a7.346,7.346,0,0,0,3.477-.8l.213-.118A7.892,7.892,0,0,0,32.5,29.245a11.358,11.358,0,0,0,1.552-3.416,14.688,14.688,0,0,0,.527-3.917,14.931,14.931,0,0,0-.5-3.829,10.17,10.17,0,0,0-1.552-3.357,8.317,8.317,0,0,0-2.636-2.386,7.13,7.13,0,0,0-3.411-.909l-.279,0H21.177v-.015H10.592V21.5A10.559,10.559,0,0,1,.064,10.909V.016H10.147A1.86,1.86,0,0,1,10.39,0Z" fill="#fff"/>
</svg>
